<svg width="34" height="34" viewBox="0 0 34 34" fill="none" xmlns="http://www.w3.org/2000/svg">
<path d="M31.1248 25.9674C31.1248 26.4774 31.0115 27.0016 30.7706 27.5116C30.5298 28.0216 30.2182 28.5033 29.8073 28.9566C29.1132 29.7216 28.3481 30.2741 27.484 30.6283C26.634 30.9824 25.7132 31.1666 24.7215 31.1666C23.2765 31.1666 21.7323 30.8266 20.1031 30.1324C18.474 29.4383 16.8448 28.5033 15.2298 27.3274C13.6007 26.1374 12.0565 24.8199 10.5832 23.3608C9.12398 21.8874 7.80648 20.3433 6.63065 18.7283C5.46898 17.1133 4.53398 15.4983 3.85398 13.8974C3.17398 12.2824 2.83398 10.7383 2.83398 9.26492C2.83398 8.30159 3.00398 7.38075 3.34398 6.53075C3.68398 5.66659 4.22232 4.87325 4.97315 4.16492C5.87982 3.27242 6.87148 2.83325 7.91982 2.83325C8.31648 2.83325 8.71315 2.91825 9.06732 3.08825C9.43565 3.25825 9.76148 3.51325 10.0165 3.88159L13.3032 8.51409C13.5582 8.86825 13.7423 9.19409 13.8698 9.50575C13.9973 9.80325 14.0682 10.1008 14.0682 10.3699C14.0682 10.7099 13.969 11.0499 13.7707 11.3758C13.5865 11.7016 13.3173 12.0416 12.9773 12.3816L11.9007 13.5008C11.7448 13.6566 11.674 13.8408 11.674 14.0674C11.674 14.1808 11.6882 14.2799 11.7165 14.3933C11.759 14.5066 11.8015 14.5916 11.8298 14.6766C12.0848 15.1441 12.524 15.7533 13.1473 16.4899C13.7848 17.2266 14.4648 17.9774 15.2015 18.7283C15.9665 19.4791 16.7032 20.1733 17.454 20.8108C18.1907 21.4341 18.7998 21.8591 19.2815 22.1141C19.3523 22.1424 19.4373 22.1849 19.5365 22.2274C19.6498 22.2699 19.7632 22.2841 19.8907 22.2841C20.1315 22.2841 20.3157 22.1991 20.4715 22.0433L21.5482 20.9808C21.9023 20.6266 22.2423 20.3574 22.5682 20.1874C22.894 19.9891 23.2198 19.8899 23.574 19.8899C23.8431 19.8899 24.1265 19.9466 24.4382 20.0741C24.7498 20.2016 25.0757 20.3858 25.4298 20.6266L30.119 23.9558C30.4873 24.2108 30.7423 24.5083 30.8981 24.8624C31.0398 25.2166 31.1248 25.5708 31.1248 25.9674Z" stroke="#E2403E" stroke-width="2" stroke-miterlimit="10"/>
</svg>
