<svg width="24" height="24" fill="none" xmlns="http://www.w3.org/2000/svg"><g clip-path="url(#a)" fill="#fff"><path d="M11.415 23.687a.703.703 0 0 0 1.17 0c1.664-2.496 4.115-5.579 5.823-8.714 1.366-2.506 2.03-4.644 2.03-6.536C20.438 3.785 16.651 0 12 0 7.348 0 3.562 3.785 3.562 8.438c0 1.89.664 4.029 2.03 6.535 1.707 3.133 4.162 6.223 5.823 8.714ZM12 1.407a7.04 7.04 0 0 1 7.031 7.03c0 1.65-.608 3.569-1.858 5.864-1.472 2.702-3.573 5.443-5.173 7.748-1.6-2.305-3.7-5.046-5.173-7.748-1.25-2.296-1.858-4.213-1.858-5.864A7.04 7.04 0 0 1 12 1.407Z"/><path d="M12 12.656a4.224 4.224 0 0 0 4.219-4.219A4.224 4.224 0 0 0 12 4.22a4.224 4.224 0 0 0-4.219 4.218A4.224 4.224 0 0 0 12 12.657Zm0-7.031a2.816 2.816 0 0 1 2.813 2.813A2.816 2.816 0 0 1 12 11.25a2.816 2.816 0 0 1-2.813-2.813A2.816 2.816 0 0 1 12 5.626Z"/></g><defs><clipPath id="a"><path fill="#fff" d="M0 0h24v24H0z"/></clipPath></defs></svg>