<svg width="34" height="34" viewBox="0 0 34 34" fill="none" xmlns="http://www.w3.org/2000/svg">
<g clip-path="url(#clip0_303_22302)">
<path d="M16.1712 33.5564C16.3559 33.8335 16.667 34 17 34C17.333 34 17.6441 33.8336 17.8288 33.5564C20.1862 30.0205 23.6584 25.6535 26.0779 21.2122C28.0126 17.6611 28.9531 14.6324 28.9531 11.9531C28.9531 5.36217 23.591 0 17 0C10.409 0 5.04688 5.36217 5.04688 11.9531C5.04688 14.6324 5.98739 17.6611 7.92207 21.2122C10.3399 25.6501 13.8187 30.0278 16.1712 33.5564ZM17 1.99219C22.4925 1.99219 26.9609 6.46066 26.9609 11.9531C26.9609 14.2909 26.0998 17.0078 24.3285 20.2592C22.2429 24.0874 19.2667 27.9708 17 31.2354C14.7336 27.9712 11.7572 24.0876 9.67147 20.2592C7.90015 17.0078 7.03906 14.2909 7.03906 11.9531C7.03906 6.46066 11.5075 1.99219 17 1.99219Z" fill="#E2403E"/>
<path d="M17 17.9297C20.2955 17.9297 22.9766 15.2486 22.9766 11.9531C22.9766 8.65765 20.2955 5.97656 17 5.97656C13.7045 5.97656 11.0234 8.65765 11.0234 11.9531C11.0234 15.2486 13.7045 17.9297 17 17.9297ZM17 7.96875C19.197 7.96875 20.9844 9.75614 20.9844 11.9531C20.9844 14.1501 19.197 15.9375 17 15.9375C14.803 15.9375 13.0156 14.1501 13.0156 11.9531C13.0156 9.75614 14.803 7.96875 17 7.96875Z" fill="#E2403E"/>
</g>
<defs>
<clipPath id="clip0_303_22302">
<rect width="34" height="34" fill="white"/>
</clipPath>
</defs>
</svg>
