<svg width="24" height="24" fill="none" xmlns="http://www.w3.org/2000/svg"><path d="M20.461 3.563H3.537c-.997 0-1.805.812-1.805 1.804v10.828c0 .998.814 1.805 1.805 1.805h16.924c.989 0 1.805-.803 1.805-1.805V5.367c0-.99-.805-1.804-1.805-1.804Zm-.253 1.203-6.933 6.896c-.34.341-.794.529-1.276.529s-.935-.188-1.277-.53L3.79 4.766h16.418ZM2.936 15.95V5.613l5.199 5.171-5.2 5.166Zm.855.847 5.197-5.164.884.88a2.988 2.988 0 0 0 2.127.88c.803 0 1.559-.312 2.126-.879l.886-.881 5.197 5.164H3.79Zm17.272-.847-5.2-5.165 5.2-5.172V15.95Z" fill="#fff"/></svg>