<svg width="34" height="34" viewBox="0 0 34 34" fill="none" xmlns="http://www.w3.org/2000/svg">
<path d="M29.3662 7.08325H5.39062C3.97805 7.08325 2.83398 8.23442 2.83398 9.63989V24.9797C2.83398 26.3936 3.98646 27.5364 5.39062 27.5364H29.3662C30.767 27.5364 31.9229 26.3984 31.9229 24.9797V9.63989C31.9229 8.23692 30.7833 7.08325 29.3662 7.08325ZM29.0082 8.78768C28.4858 9.30725 19.4966 18.2491 19.1863 18.5579C18.7033 19.0408 18.0613 19.3067 17.3784 19.3067C16.6955 19.3067 16.0535 19.0407 15.569 18.5563C15.3603 18.3486 6.47027 9.50547 5.74867 8.78768H29.0082ZM4.53841 24.6328V9.98788L11.9037 17.3144L4.53841 24.6328ZM5.74975 25.8319L13.1121 18.5164L14.3654 19.7631C15.1702 20.5679 16.2403 21.0111 17.3784 21.0111C18.5166 21.0111 19.5866 20.5679 20.3899 19.7646L21.6447 18.5164L29.0071 25.8319H5.74975ZM30.2184 24.6328L22.8532 17.3144L30.2184 9.98788V24.6328Z" fill="#E2403E"/>
</svg>
