<svg width="35" height="49" viewBox="0 0 35 49" fill="none" xmlns="http://www.w3.org/2000/svg">
<path d="M16.2866 48.3607C16.557 48.7601 17.0124 49 17.5 49C17.9876 49 18.443 48.7602 18.7134 48.3607C22.1647 43.2648 27.2482 36.9713 30.7906 30.5705C33.623 25.4527 35 21.0878 35 17.2266C35 7.72784 27.1495 0 17.5 0C7.8505 0 0 7.72784 0 17.2266C0 21.0878 1.37696 25.4527 4.20943 30.5705C7.74919 36.9664 12.8424 43.2753 16.2866 48.3607ZM17.5 2.87109C25.5413 2.87109 32.0833 9.31096 32.0833 17.2266C32.0833 20.5957 30.8227 24.5113 28.2293 29.197C25.1759 34.7142 20.8186 40.3108 17.5 45.0158C14.1819 40.3115 9.82431 34.7145 6.77065 29.197C4.17735 24.5113 2.91667 20.5957 2.91667 17.2266C2.91667 9.31096 9.45875 2.87109 17.5 2.87109Z" fill="#E2403E"/>
<path d="M17.5 2.87109C25.5413 2.87109 32.0833 9.31096 32.0833 17.2266C32.0833 20.5957 30.8227 24.5113 28.2293 29.197C25.1759 34.7142 20.8186 40.3108 17.5 45.0158C14.1819 40.3115 9.82431 34.7145 6.77065 29.197C4.17735 24.5113 2.91667 20.5957 2.91667 17.2266C2.91667 9.31096 9.45875 2.87109 17.5 2.87109Z" fill="#E2403E"/>
<path d="M23.183 20.6815C23.42 20.2231 23.604 19.7413 23.7319 19.2446C23.8068 18.9564 23.8655 18.6645 23.9077 18.3703C23.9987 17.7361 24.0225 17.0948 23.9787 16.4561C23.9554 15.8549 23.6174 15.1166 23.3038 14.7703C22.9902 14.4241 22.4128 14.1001 22.0028 14.0311C21.3927 13.9792 20.7784 13.9945 20.172 14.0768L18.0032 14.354L15.8376 14.0757C15.223 13.9935 14.6006 13.9782 13.9824 14.03C13.5978 14.0991 13.0183 14.422 12.711 14.7693C12.4038 15.1166 12.0605 15.8549 12.0117 16.455C11.981 17.0944 12.0107 17.7351 12.1007 18.3693C12.1396 18.6635 12.1941 18.9557 12.2639 19.2446C12.3872 19.7401 12.5648 20.2218 12.7937 20.6815C12.7937 20.6815 13.3478 21.7671 13.3478 23.4762C13.3478 24.319 13.5713 25.7925 13.9114 27.0406C13.9315 27.1157 13.9527 27.1909 13.9739 27.265C14.1031 27.7418 14.2805 28.2054 14.5037 28.6491C14.7929 29.1792 15.6363 29.0878 15.8291 28.511C16.4309 26.5013 16.8409 21.4665 17.9968 21.4899C19.1294 21.4665 19.5628 26.5013 20.1656 28.511C20.3584 29.0878 21.2018 29.1802 21.49 28.6491C21.7081 28.2056 21.8826 27.7436 22.0112 27.2691C22.0314 27.199 22.0504 27.1269 22.0706 27.0548C22.4064 25.8047 22.631 24.3231 22.631 23.4762C22.6321 21.7681 23.1862 20.6815 23.1862 20.6815H23.183Z" fill="white"/>
</svg>
