<svg width="34" height="34" viewBox="0 0 34 34" fill="none" xmlns="http://www.w3.org/2000/svg">
<path d="M16.9994 1.41675C13.9173 1.41675 10.9044 2.33069 8.34172 4.04301C5.77905 5.75533 3.7817 8.18911 2.60223 11.0366C1.42277 13.8841 1.11417 17.0174 1.71545 20.0402C2.31674 23.0631 3.80091 25.8398 5.98027 28.0192C8.15964 30.1985 10.9363 31.6827 13.9592 32.284C16.9821 32.8853 20.1154 32.5767 22.9628 31.3972C25.8103 30.2177 28.2441 28.2204 29.9564 25.6577C31.6687 23.095 32.5827 20.0822 32.5827 17.0001C32.5778 12.8686 30.9344 8.90777 28.013 5.98638C25.0917 3.065 21.1308 1.42162 16.9994 1.41675ZM16.9994 29.7501C14.4776 29.7501 12.0126 29.0023 9.91583 27.6013C7.81911 26.2003 6.18491 24.209 5.21989 21.8793C4.25487 19.5495 4.00238 16.9859 4.49434 14.5127C4.9863 12.0394 6.20062 9.76759 7.98374 7.98447C9.76686 6.20135 12.0387 4.98703 14.512 4.49507C16.9852 4.00311 19.5488 4.2556 21.8786 5.22062C24.2083 6.18563 26.1996 7.81983 27.6006 9.91656C29.0016 12.0133 29.7493 14.4784 29.7493 17.0001C29.7452 20.3803 28.4006 23.6209 26.0104 26.0111C23.6202 28.4013 20.3796 29.7459 16.9994 29.7501Z" fill="#E2403E"/>
<path d="M18.4154 16.4146V8.50114C18.4154 8.12542 18.2661 7.76508 18.0004 7.4994C17.7348 7.23373 17.3744 7.08447 16.9987 7.08447C16.623 7.08447 16.2626 7.23373 15.997 7.4994C15.7313 7.76508 15.582 8.12542 15.582 8.50114V17.0011C15.5821 17.3768 15.7314 17.7371 15.9971 18.0027L20.2471 22.2527C20.5143 22.5108 20.8722 22.6536 21.2436 22.6503C21.615 22.6471 21.9704 22.4981 22.233 22.2355C22.4957 21.9728 22.6447 21.6175 22.6479 21.246C22.6511 20.8746 22.5083 20.5167 22.2503 20.2496L18.4154 16.4146Z" fill="#E2403E"/>
</svg>
