<svg width="30" height="21" viewBox="0 0 30 21" fill="none" xmlns="http://www.w3.org/2000/svg">
<rect x="3.08008" y="1.92407" width="22.2668" height="14.2947" fill="white"/>
<path d="M28.8269 2.94915L28.8634 3.18712C28.5113 1.93778 27.5606 0.973754 26.3525 0.622869L26.327 0.616798C24.0554 1.66447e-05 14.9142 1.67794e-05 14.9142 1.67794e-05C14.9142 1.67794e-05 5.796 -0.0121247 3.50128 0.616798C2.27015 0.973754 1.31827 1.93778 0.972238 3.16163L0.966167 3.18712C0.117486 7.61993 0.111416 12.9463 1.00381 17.6924L0.966167 17.452C1.31827 18.7014 2.26893 19.6654 3.477 20.0163L3.5025 20.0223C5.77172 20.6403 14.9154 20.6403 14.9154 20.6403C14.9154 20.6403 24.0323 20.6403 26.3282 20.0223C27.5606 19.6654 28.5125 18.7014 28.8585 17.4775L28.8646 17.452C29.2507 15.3904 29.4716 13.018 29.4716 10.5946C29.4716 10.5059 29.4716 10.4161 29.4704 10.3262C29.4716 10.2437 29.4716 10.1453 29.4716 10.047C29.4716 7.62236 29.2507 5.24994 28.8269 2.94915V2.94915ZM11.9978 14.753V5.89829L19.6056 10.3323L11.9978 14.753Z" fill="#FF0000"/>
</svg>
