<?xml version="1.0" encoding="UTF-8"?>
<svg xmlns="http://www.w3.org/2000/svg" width="65" height="65" viewBox="0 0 65 65" fill="none">
  <path d="M11.1025 54.4261C11.1025 57.0602 13.234 59.2835 15.9576 59.2835H19.9105V62.0016C19.9105 62.8336 20.9219 63.2468 21.505 62.6579L23.2759 60.8702L25.0473 62.6579C25.6388 63.2524 26.6417 62.826 26.6417 62.0016V59.2835H52.9637C53.7571 59.2835 54.1875 58.352 53.6737 57.7479C51.7508 55.4858 51.7508 53.3785 53.6737 51.1164C53.8177 50.947 53.8827 50.7359 53.8833 50.522C53.8863 49.6706 53.8854 5.12644 53.8854 5.03198C53.8854 3.3953 52.554 2.06445 50.9178 2.06445C42.0631 2.06445 24.832 2.06445 15.959 2.06445C13.2814 2.06445 11.1025 4.24284 11.1025 6.9199V54.4261ZM23.9381 58.8893C23.5734 58.5217 22.9785 58.5217 22.6136 58.8893L21.7749 59.7358V56.0546H24.7774V58.3421C24.7774 58.3453 24.7756 58.3481 24.7756 58.3513C24.7756 58.3545 24.7774 58.3572 24.7774 58.3604V59.7367L23.9381 58.8893ZM51.1809 57.4192H26.6417V55.1225C26.6417 54.6073 26.2243 54.1904 25.7096 54.1904H20.8428C20.328 54.1904 19.9107 54.6073 19.9107 55.1225V57.4192H15.9577C14.3223 57.4192 12.9747 56.1015 12.9747 54.427C12.9747 52.8171 14.3132 51.4546 15.9433 51.4466C15.9487 51.4466 15.9537 51.4449 15.9591 51.4449H51.181C50.0953 53.4203 50.0953 55.4439 51.1809 57.4192ZM52.0211 5.03198V49.5798H21.7749V3.92863H50.9178C51.5263 3.92863 52.0211 4.42388 52.0211 5.03198ZM12.9668 6.9199C12.9668 5.2704 14.3091 3.92863 15.959 3.92863H19.907L19.9065 49.5806H15.959H15.9576C14.1869 49.5806 13.0607 50.5607 12.9668 50.612V6.9199Z" fill="#E2403E"></path>
  <path d="M30.1542 22.2292H43.6379C45.1367 22.2292 46.356 21.0094 46.356 19.5111V11.841C46.356 10.3427 45.1366 9.12292 43.6379 9.12292H30.1542C28.6559 9.12292 27.4365 10.3427 27.4365 11.841V19.5111C27.4367 21.0094 28.6559 22.2292 30.1542 22.2292ZM29.3008 11.841C29.3008 11.3704 29.6836 10.9871 30.1542 10.9871H43.6379C44.1085 10.9871 44.4918 11.3704 44.4918 11.841V19.5111C44.4918 19.9817 44.1085 20.365 43.6379 20.365H30.1542C29.6836 20.365 29.3008 19.9817 29.3008 19.5111V11.841Z" fill="#E2403E"></path>
</svg>
