<?xml version="1.0" encoding="UTF-8"?>
<svg xmlns="http://www.w3.org/2000/svg" width="65" height="65" viewBox="0 0 65 65" fill="none">
  <path d="M56.3012 43.5608C55.8245 32.1425 47.2662 22.7825 36.2162 21.0383C36.8012 20.2583 37.1695 19.2942 37.1695 18.2542C37.1695 15.6867 35.0787 13.5958 32.5003 13.5958C29.9328 13.5958 27.842 15.6867 27.842 18.2542C27.842 19.305 28.1995 20.2583 28.7953 21.0383C17.7453 22.7717 9.19783 32.1425 8.71033 43.5608C6.83616 43.8858 5.41699 45.5 5.41699 47.45C5.41699 49.6275 7.19366 51.4042 9.37116 51.4042H55.6295C57.807 51.4042 59.5837 49.6275 59.5837 47.45C59.5837 45.5 58.1645 43.8858 56.3012 43.5608ZM30.0087 18.265C30.0087 16.8892 31.1245 15.7733 32.5003 15.7733C33.8762 15.7733 35.0028 16.8892 35.0028 18.265C35.0028 19.6408 33.887 20.7567 32.5003 20.7567C31.1137 20.7567 30.0087 19.6408 30.0087 18.265ZM32.5003 22.9233C44.0812 22.9233 53.5387 32.0558 54.102 43.4958H10.8987C11.4728 32.0558 20.9195 22.9233 32.5003 22.9233ZM55.6295 49.2375H9.37116C8.38533 49.2375 7.58366 48.4358 7.58366 47.45C7.58366 46.4642 8.38533 45.6625 9.37116 45.6625H55.6295C56.6153 45.6625 57.417 46.4642 57.417 47.45C57.417 48.4358 56.6153 49.2375 55.6295 49.2375Z" fill="#E2403E"></path>
  <path d="M32.5002 27.2567C37.8411 27.2567 42.8027 29.6725 46.1177 33.8758C46.3344 34.1467 46.6486 34.2875 46.9736 34.2875C47.2119 34.2875 47.4502 34.2117 47.6452 34.06C48.1111 33.6917 48.1977 33.0092 47.8294 32.5433C44.1027 27.8092 38.5127 25.1008 32.5111 25.1008C31.9152 25.1008 31.4277 25.5883 31.4277 26.1842C31.4277 26.78 31.9044 27.2567 32.5002 27.2567Z" fill="#E2403E"></path>
</svg>
