<?xml version="1.0" encoding="UTF-8"?>
<svg xmlns="http://www.w3.org/2000/svg" width="65" height="65" fill="none">
  <g clip-path="url(#a)">
    <path d="M17.688 18.101v29.283C8.043 44.47 1 35.415 1 24.684 1 11.591 11.477 1 24.375 1c10.284 0 19.03 6.733 22.152 16.101h-28.84v1Zm29.666 5.841c0 13.366-10.646 24.172-23.742 24.172-.776 0-1.543-.038-2.3-.112V20.747H47.15c.135 1.045.205 2.111.205 3.195Zm-23.602 27.63c15.028 0 27.189-12.332 27.189-27.52a28.14 28.14 0 0 0-.194-3.305H64V64H21.312V51.464c.804.072 1.618.109 2.44.109Z" stroke="#E2403E" stroke-width="2"></path>
  </g>
  <defs>
    <clipPath id="a">
      <path fill="#fff" d="M0 0h65v65H0z"></path>
    </clipPath>
  </defs>
</svg>
