<?xml version="1.0" encoding="UTF-8"?>
<svg xmlns="http://www.w3.org/2000/svg" width="230" height="48" fill="none">
  <path d="M74.523 33.219h2.869c1.618 0 3.17.635 4.315 1.765a5.991 5.991 0 0 1 1.788 4.263 5.99 5.99 0 0 1-1.788 4.263 6.141 6.141 0 0 1-4.315 1.765h-2.869V33.22Zm6.062 6.082a3.058 3.058 0 0 0-.92-2.237 3.13 3.13 0 0 0-1.042-.678 3.164 3.164 0 0 0-1.227-.222v6.273a3.218 3.218 0 0 0 2.248-.92 3.14 3.14 0 0 0 .941-2.216Zm8.583-6.082h6.21c.283 0 .554.112.754.31.2.197.313.465.314.745v1.808h-4.377v1.733h4.38v2.863h-4.38v1.734h4.38v2.863h-7.28V33.22Zm13.38 0h2.289a1.093 1.093 0 0 1 .809.36l6.393 7.34v-7.7h1.83a1.072 1.072 0 0 1 .758.307 1.046 1.046 0 0 1 .31.748v11.001h-2.93l-6.56-7.542v7.536h-2.899v-12.05Zm21.953 2.863h-3.856v-2.863h9.525c.283 0 .555.112.755.31.2.197.313.465.313.745v1.808h-3.855v9.184h-2.882v-9.184Zm15.929-2.187.015-.015a1.05 1.05 0 0 1 .978-.648c.206 0 .408.057.581.167.173.11.311.266.396.451l5.4 11.407-.03.016h-2.993l-1.175-2.487h-4.347l-1.175 2.487h-3.021l5.371-11.378Zm1.891 6.194-.885-1.913-.907 1.913h1.792Zm10.815-6.87h1.846a1.069 1.069 0 0 1 .985.639c.054.127.082.263.083.4v8.139h4.241v2.878h-7.155V33.22Zm21.648 6.283c0-3.452 2.656-6.283 6.148-6.283a5.71 5.71 0 0 1 2.321.44 5.653 5.653 0 0 1 1.936 1.339l-1.388 1.37a.958.958 0 0 1-1.265.106 4.533 4.533 0 0 0-1.708-.421 3.097 3.097 0 0 0-2.172.894 3.023 3.023 0 0 0-.894 2.15c0 1.734 1.265 3.36 3.175 3.36a4.02 4.02 0 0 0 1.601-.448.96.96 0 0 1 1.265.105l1.388 1.371c-1.068 1.16-2.653 1.779-4.454 1.779-3.206.009-5.953-2.603-5.953-5.762Zm16.507-6.283h1.846a1.07 1.07 0 0 1 .753.3 1.045 1.045 0 0 1 .316.74v8.138h4.24v2.878h-7.155V33.22Zm12.875 6.855v-6.855h1.827a1.066 1.066 0 0 1 .749.311 1.036 1.036 0 0 1 .304.744v5.824a2.238 2.238 0 0 0 .62 1.568c.403.424.957.678 1.545.708a2.279 2.279 0 0 0 1.652-.628 2.22 2.22 0 0 0 .682-1.612V33.22h1.83a1.072 1.072 0 0 1 .757.307 1.05 1.05 0 0 1 .311.748v5.878a5.065 5.065 0 0 1-1.548 3.614 5.172 5.172 0 0 1-1.695 1.096 5.227 5.227 0 0 1-1.991.368c-2.814-.002-5.043-2.367-5.043-5.156Zm16.387-6.855h4.225c2.242 0 4.059 1.597 4.059 3.57v.045a3.327 3.327 0 0 1-1.052 2.41 3.33 3.33 0 0 1 1.052 2.397v.061c0 1.974-1.814 3.57-4.059 3.57h-4.225V33.22Zm4.225 4.852c.34.009.671-.109.928-.33a1.34 1.34 0 0 0 .46-.862v-.12c-.046-.673-.656-1.19-1.434-1.19h-1.503v2.502h1.549Zm-.046 4.852c.778 0 1.388-.526 1.434-1.19v-.12a1.342 1.342 0 0 0-.46-.863 1.37 1.37 0 0 0-.928-.33h-1.549v2.503h1.503ZM73.881 19.05a1.727 1.727 0 0 1 .509-1.244 1.771 1.771 0 0 1 1.251-.521h5.624c1.25 0 2.375-1.134 2.375-2.395 0-.629-.249-1.233-.692-1.685a2.466 2.466 0 0 0-1.683-.734h-7.384V7.654h7.58a7.383 7.383 0 0 1 4.051 1.408 7.242 7.242 0 0 1 2.557 3.409 6.896 6.896 0 0 1 0 4.814 7.215 7.215 0 0 1-2.597 3.44 7.355 7.355 0 0 1-4.116 1.374H78.73v5.721h-4.85v-8.77ZM96.85 8.79l.025-.025a1.75 1.75 0 0 1 .648-.788 1.801 1.801 0 0 1 1.955-.018c.29.184.52.446.662.755l9.035 19.084-.05.024h-5.003l-1.964-4.16h-7.275l-1.966 4.16h-5.05L96.85 8.79Zm3.174 10.36-1.48-3.2-1.518 3.19 2.998.01Zm11.704.178c.01-.464.201-.907.534-1.234a1.825 1.825 0 0 1 1.251-.523h5.819a2.572 2.572 0 0 0 1.87-.772 2.511 2.511 0 0 0 .709-1.875 2.566 2.566 0 0 0-.818-1.744 2.628 2.628 0 0 0-1.811-.703h-7.554V7.681h7.529c4.083 0 7.554 3.278 7.53 7.31a7.177 7.177 0 0 1-1.154 3.907 7.297 7.297 0 0 1-3.108 2.672l6.33 6.252h-6.74l-5.538-5.47v5.47h-4.849v-8.494Zm38.816-1.588a9.996 9.996 0 0 1-1.72 5.6 10.176 10.176 0 0 1-4.58 3.713 10.322 10.322 0 0 1-5.896.573 10.242 10.242 0 0 1-5.225-2.758 10.047 10.047 0 0 1-2.793-5.162 9.96 9.96 0 0 1 .581-5.824 10.106 10.106 0 0 1 3.758-4.524 10.294 10.294 0 0 1 5.67-1.7 10.27 10.27 0 0 1 7.216 2.953 10.018 10.018 0 0 1 2.989 7.128Zm-4.874 0a5.227 5.227 0 0 0-.898-2.928 5.329 5.329 0 0 0-2.394-1.94 5.396 5.396 0 0 0-3.082-.3 5.354 5.354 0 0 0-2.731 1.442 5.25 5.25 0 0 0-1.46 2.698 5.205 5.205 0 0 0 .304 3.044 5.279 5.279 0 0 0 1.964 2.364 5.379 5.379 0 0 0 6.731-.66 5.245 5.245 0 0 0 1.566-3.72Zm8.065-10.086h4.798c5.69 0 10.131 4.563 10.131 10.16a9.907 9.907 0 0 1-.77 3.83 9.995 9.995 0 0 1-2.196 3.247c-.94.93-2.058 1.667-3.287 2.17a10.23 10.23 0 0 1-3.878.759h-4.798V7.654Zm10.132 10.16a5.116 5.116 0 0 0-1.54-3.741 5.224 5.224 0 0 0-1.742-1.133 5.283 5.283 0 0 0-2.052-.37v10.512a5.382 5.382 0 0 0 3.768-1.547 5.25 5.25 0 0 0 1.566-3.722Zm7.987-10.16h10.387c.473.001.927.188 1.262.519.335.33.524.779.525 1.247v3.024h-7.325v2.898h7.325v4.79h-7.325v2.899h7.325v4.789h-12.174V7.654Zm15.997 0h3.833a1.835 1.835 0 0 1 1.36.605l10.693 12.276V7.655h3.062a1.79 1.79 0 0 1 1.267.513 1.75 1.75 0 0 1 .52 1.252v18.402h-4.901l-10.981-12.605v12.605h-4.853V7.654Zm30.35 4.79h-6.431v-4.79h15.924a1.8 1.8 0 0 1 1.262.519c.335.33.524.779.525 1.247v3.024h-6.431V27.82h-4.849V12.444Z" fill="#E2403E"></path>
  <path d="M59.628 19.464a11.046 11.046 0 0 1-.843 2.279s-.853 1.72-.853 4.428c0 1.418-.388 3.965-.952 6.01a12.394 12.394 0 0 1-.79 2.187c-.453.84-1.741.694-2.04-.224-.928-3.185-1.588-11.165-3.337-11.127-1.778-.036-2.408 7.944-3.333 11.127-.297.914-1.588 1.06-2.041.224a11.91 11.91 0 0 1-.814-2.193 25.605 25.605 0 0 1-.406-1.653c.719-2.758 1.2-6.026 1.2-7.895 0-3.77 1.186-6.164 1.186-6.164a15.385 15.385 0 0 0 1.174-3.17c.16-.636.286-1.28.377-1.929l2.655.35 3.336-.449a12.58 12.58 0 0 1 2.817-.074 4.02 4.02 0 0 1 2 1.172c.602.772.963 1.7 1.039 2.673a14.379 14.379 0 0 1-.375 4.428Zm-38.005-3.001a15.837 15.837 0 0 1-1.134-3.17 19.082 19.082 0 0 1-.372-1.929l-2.663.35-3.333-.449a12.823 12.823 0 0 0-2.853-.074 4.092 4.092 0 0 0-1.964 1.172 5.302 5.302 0 0 0-1.075 2.673c-.076 1.484.06 2.972.404 4.42.191.785.467 1.547.82 2.275 0 0 .851 1.72.851 4.43 0 1.415.386 3.957.964 6.003.198.755.471 1.49.814 2.193.454.84 1.742.694 2.041-.224.925-3.186 1.556-11.165 3.334-11.127 1.741-.036 2.408 7.944 3.335 11.127.298.914 1.588 1.06 2.041.224.332-.703.596-1.435.79-2.187.15-.54.285-1.12.406-1.69-.728-2.752-1.207-6.005-1.207-7.864-.009-3.756-1.2-6.153-1.2-6.153Zm23.598 0a15.385 15.385 0 0 0 1.175-3.17c.16-.636.286-1.28.376-1.929.195-1.399.246-2.814.152-4.223-.05-1.326-.773-2.954-1.444-3.718-.672-.764-1.907-1.479-2.785-1.631a17.368 17.368 0 0 0-3.919.1l-4.642.612-4.635-.614a17.827 17.827 0 0 0-3.971-.1c-.823.152-2.064.864-2.722 1.63-.657.767-1.392 2.395-1.496 3.72a23.057 23.057 0 0 0 .19 4.222c.083.649.2 1.293.35 1.93a15.844 15.844 0 0 0 1.133 3.17s1.186 2.395 1.186 6.165c0 1.86.479 5.11 1.207 7.863.043.166.088.332.133.495a16.575 16.575 0 0 0 1.134 3.054c.62 1.169 2.425.967 2.837-.305 1.288-4.433 2.166-15.54 4.64-15.488 2.425-.052 3.352 11.055 4.643 15.488.412 1.272 2.217 1.476 2.834.305a17.25 17.25 0 0 0 1.116-3.045c.043-.154.084-.313.127-.472.719-2.758 1.2-6.026 1.2-7.895.002-3.767 1.188-6.164 1.188-6.164h-.007Z" fill="#CCC"></path>
  <path d="M1.863 43.868h64.66l-.066 1.403H1.958l-.095-1.403Zm52.738-6.96c-.81 0-1.567-.013-2.268-.038-2.12-.072-4.266-.275-6.48-.275-2.875 0-5.86.347-9.043 1.792a20.58 20.58 0 0 0-2.597 1.407 20.99 20.99 0 0 0-2.64-1.407c-3.22-1.432-6.227-1.777-9.118-1.777-2.186 0-4.309.197-6.402.267a65.01 65.01 0 0 1-2.268.038 71.301 71.301 0 0 1-12.46-1.12 38.568 38.568 0 0 1 .098 1.458l1.447.224a72.55 72.55 0 0 0 10.915.843c.769 0 1.549-.014 2.318-.038a96.84 96.84 0 0 0 2.458-.121c1.272-.072 2.59-.146 3.896-.146 2.243 0 5.24.188 8.534 1.65.85.38 1.673.817 2.46 1.311a1.438 1.438 0 0 0 1.538 0 19.33 19.33 0 0 1 2.415-1.308c2.538-1.147 5.143-1.658 8.45-1.658 1.313 0 2.635.077 3.914.15.823.048 1.676.097 2.515.126.769.027 1.549.038 2.318.038a72.525 72.525 0 0 0 10.915-.842l1.449-.253a34.83 34.83 0 0 1 .093-1.43A71.299 71.299 0 0 1 54.6 36.906v.002ZM.82 41.066l14.39.175L.854 40.224l-.034.842Zm66.577-.845L53.04 41.238l14.392-.174-.034-.843Z" fill="gray"></path>
</svg>
