<svg width="396" height="94" viewBox="0 0 396 94" fill="none" xmlns="http://www.w3.org/2000/svg">
<path d="M12.7744 58.762C16.4475 58.762 19.3339 59.5746 21.4338 61.1998C23.5271 62.8251 24.5737 65.1329 24.5737 68.1234V68.7085H19.7955V67.9771C19.7955 66.4169 19.1617 65.2142 17.894 64.3691C16.6263 63.5239 14.9523 63.1014 12.872 63.1014C10.5641 63.1014 8.76983 63.4817 7.48914 64.2423C6.20194 65.0094 5.55834 66.1081 5.55834 67.5383C5.55834 68.611 5.92565 69.4886 6.66026 70.1712C7.38837 70.8538 8.29851 71.3901 9.39067 71.7802C10.4763 72.1703 11.9781 72.6091 13.8959 73.0966C16.3662 73.7467 18.3653 74.3806 19.893 74.9982C21.4207 75.6158 22.7307 76.5422 23.8229 77.7774C24.9085 79.0125 25.4514 80.654 25.4514 82.7019C25.4514 86.3424 24.3397 88.9981 22.1164 90.6688C19.8865 92.3461 16.7563 93.1847 12.7257 93.1847C8.69507 93.1847 5.56809 92.3298 3.34476 90.6201C1.11492 88.9168 0 86.4399 0 83.1894L0.0487576 82.2143H4.82698L4.77822 83.2382C4.77822 85.1235 5.48683 86.5277 6.90405 87.4508C8.31476 88.3805 10.2716 88.8453 12.7744 88.8453C15.2123 88.8453 17.1398 88.3967 18.5571 87.4996C19.9678 86.6089 20.6731 85.3835 20.6731 83.8233C20.6731 82.5881 20.2928 81.5869 19.5322 80.8198C18.7651 80.0592 17.8062 79.4676 16.6555 79.0451C15.4984 78.6225 13.9284 78.1512 11.9456 77.6311C9.50769 76.981 7.5574 76.3634 6.09467 75.7783C4.63195 75.1932 3.38051 74.2896 2.34036 73.0674C1.3002 71.8517 0.780119 70.2525 0.780119 68.2697C0.780119 65.0517 1.86903 62.6626 4.04686 61.1023C6.22469 59.5421 9.13389 58.762 12.7744 58.762ZM58.3626 67.2945C60.9305 67.2945 62.9295 68.0421 64.3598 69.5374C65.79 71.0326 66.5051 73.1617 66.5051 75.9246V92.6971H61.9219V76.7535C61.9219 72.8854 60.4267 70.9513 57.4362 70.9513C56.3961 70.9513 55.4274 71.2601 54.5303 71.8777C53.6396 72.4953 52.9245 73.3307 52.3849 74.3838C51.8519 75.4435 51.5853 76.6072 51.5853 77.8749V92.6971H47.0021V76.7535C47.0021 72.8854 45.5069 70.9513 42.5165 70.9513C41.4763 70.9513 40.5076 71.2601 39.6105 71.8777C38.7199 72.4953 38.0048 73.3307 37.4652 74.3838C36.9321 75.4435 36.6656 76.6072 36.6656 77.8749V92.6971H32.0824V67.7821H35.3979L36.0317 71.4389C37.917 68.676 40.5336 67.2945 43.8817 67.2945C47.1647 67.2945 49.44 68.676 50.7077 71.4389C51.8129 69.8787 52.9993 68.7962 54.267 68.1917C55.5347 67.5936 56.8999 67.2945 58.3626 67.2945ZM74.2575 57.5918H79.0357V61.8337H74.2575V57.5918ZM74.355 67.7821H78.9382V92.6971H74.355V67.7821ZM87.2172 57.5918H91.8004V92.6971H87.2172V57.5918ZM110.084 67.2945C112.132 67.2945 113.946 67.7236 115.526 68.5817C117.099 69.4463 118.324 70.675 119.202 72.2678C120.08 73.8605 120.519 75.7133 120.519 77.8261V81.2879H103.112C103.177 83.9208 103.795 85.9523 104.965 87.3826C106.135 88.8128 107.874 89.5279 110.182 89.5279C112.23 89.5279 113.741 88.9265 114.716 87.7239C115.692 86.5212 116.179 85.091 116.179 83.4332H120.519C120.519 85.3835 120.073 87.09 119.183 88.5527C118.285 90.0155 117.05 91.1531 115.477 91.9658C113.897 92.7784 112.1 93.1847 110.084 93.1847H109.889C106.379 93.1847 103.609 92.0535 101.581 89.7912C99.5463 87.5353 98.5289 84.5221 98.5289 80.7516V79.7764C98.5289 77.306 98.984 75.1282 99.8942 73.2429C100.804 71.3576 102.104 69.8949 103.795 68.8548C105.485 67.8146 107.468 67.2945 109.743 67.2945H110.084ZM109.841 70.9513C107.988 70.9513 106.486 71.5202 105.335 72.6578C104.178 73.7955 103.47 75.4858 103.21 77.7286H115.984V77.1435C115.984 75.2907 115.425 73.7955 114.307 72.6578C113.182 71.5202 111.693 70.9513 109.841 70.9513ZM151.138 59.2495C153.934 59.2495 156.371 59.8574 158.452 61.0731C160.532 62.2953 162.141 64.0343 163.279 66.2901C164.416 68.5525 164.985 71.2114 164.985 74.2668V77.6798C164.985 80.7353 164.416 83.391 163.279 85.6468C162.141 87.9091 160.532 89.6482 158.452 90.8638C156.371 92.086 153.934 92.6971 151.138 92.6971H139.534V59.2495H151.138ZM151.138 63.589H144.312V88.3577H151.138C154.031 88.3577 156.264 87.4541 157.837 85.6468C159.417 83.846 160.207 81.1904 160.207 77.6798V74.2668C160.207 70.8213 159.433 68.1787 157.886 66.3389C156.345 64.5056 154.096 63.589 151.138 63.589ZM181.992 67.2945C184.04 67.2945 185.853 67.7236 187.433 68.5817C189.006 69.4463 190.232 70.675 191.109 72.2678C191.987 73.8605 192.426 75.7133 192.426 77.8261V81.2879H175.02C175.085 83.9208 175.702 85.9523 176.872 87.3826C178.042 88.8128 179.782 89.5279 182.089 89.5279C184.137 89.5279 185.649 88.9265 186.624 87.7239C187.599 86.5212 188.087 85.091 188.087 83.4332H192.426C192.426 85.3835 191.981 87.09 191.09 88.5527C190.193 90.0155 188.958 91.1531 187.384 91.9658C185.805 92.7784 184.007 93.1847 181.992 93.1847H181.797C178.286 93.1847 175.517 92.0535 173.489 89.7912C171.454 87.5353 170.436 84.5221 170.436 80.7516V79.7764C170.436 77.306 170.891 75.1282 171.802 73.2429C172.712 71.3576 174.012 69.8949 175.702 68.8548C177.392 67.8146 179.375 67.2945 181.651 67.2945H181.992ZM181.748 70.9513C179.895 70.9513 178.394 71.5202 177.243 72.6578C176.086 73.7955 175.377 75.4858 175.117 77.7286H187.891V77.1435C187.891 75.2907 187.332 73.7955 186.214 72.6578C185.09 71.5202 183.601 70.9513 181.748 70.9513ZM211.393 67.2945C214.123 67.2945 216.268 68.0259 217.829 69.4886C219.389 70.9513 220.169 73.0966 220.169 75.9246V92.6971H215.586V76.7535C215.586 72.8854 213.83 70.9513 210.32 70.9513C209.15 70.9513 208.061 71.2601 207.053 71.8777C206.045 72.4953 205.233 73.3307 204.615 74.3838C203.998 75.4435 203.689 76.6072 203.689 77.8749V92.6971H199.106V67.7821H202.421L203.055 71.4389C205.135 68.676 207.915 67.2945 211.393 67.2945ZM233.138 59.8346V67.7821H238.94V71.4389H233.138V86.3099C233.138 87.4801 233.366 88.3252 233.821 88.8453C234.276 89.3654 234.975 89.6254 235.918 89.6254C236.763 89.6254 237.77 89.3816 238.94 88.894V92.3071C237.77 92.8921 236.259 93.1847 234.406 93.1847C232.488 93.1847 231.032 92.6159 230.037 91.4782C229.049 90.3405 228.555 88.5365 228.555 86.0661V71.4389H225.825V67.7821H228.701L230.262 59.8346H233.138ZM254.445 67.2945C257.728 67.2945 260.173 67.9446 261.778 69.2448C263.391 70.545 264.197 72.4303 264.197 74.9007V87.8214C264.197 88.4065 264.327 88.8355 264.587 89.1086C264.847 89.3881 265.172 89.5279 265.562 89.5279C266.31 89.5279 267.057 89.3004 267.805 88.8453V92.2095C266.7 92.8596 265.448 93.1847 264.051 93.1847C262.653 93.1847 261.613 92.7849 260.93 91.9853C260.247 91.1921 259.874 90.0967 259.809 88.699C257.793 91.6895 254.884 93.1847 251.081 93.1847C248.351 93.1847 246.309 92.5899 244.957 91.4002C243.611 90.217 242.939 88.3415 242.939 85.7736C242.939 83.7583 243.459 82.172 244.499 81.0148C245.539 79.8642 247.262 79.0288 249.667 78.5087C252.072 77.9886 255.388 77.7286 259.614 77.7286V75.437C259.614 73.7793 259.126 72.6156 258.151 71.946C257.176 71.2829 255.762 70.9513 253.909 70.9513C252.154 70.9513 250.789 71.2926 249.813 71.9752C248.838 72.6578 248.351 73.6167 248.351 74.8519V75.437H243.865C243.8 74.9819 243.767 74.4456 243.767 73.828C243.767 72.6903 244.223 71.6177 245.133 70.61C246.043 69.6024 247.278 68.7962 248.838 68.1917C250.398 67.5936 252.121 67.2945 254.007 67.2945H254.445ZM259.614 81.2879C256.201 81.2879 253.623 81.4569 251.881 81.795C250.145 82.1395 248.984 82.6531 248.399 83.3357C247.814 84.0183 247.522 84.9609 247.522 86.1636C247.522 88.4065 249.228 89.5279 252.641 89.5279C253.844 89.5279 254.982 89.2288 256.054 88.6308C257.127 88.0262 257.988 87.1713 258.638 86.0661C259.289 84.9609 259.614 83.6933 259.614 82.263V81.2879ZM273.353 57.5918H277.937V92.6971H273.353V57.5918ZM310.848 58.762C313.448 58.762 315.724 59.2983 317.674 60.371C319.624 61.4436 321.126 62.9779 322.179 64.9737C323.239 66.976 323.769 69.3423 323.769 72.0727H318.99C318.99 69.2448 318.292 67.041 316.894 65.4612C315.496 63.888 313.481 63.1014 310.848 63.1014C307.922 63.1014 305.696 64.0018 304.168 65.8025C302.64 67.6098 301.877 70.2687 301.877 73.7793V78.1674C301.877 81.6454 302.624 84.2946 304.119 86.1149C305.615 87.9351 307.825 88.8453 310.75 88.8453C313.481 88.8453 315.568 88.0652 317.011 86.5049C318.461 84.9447 319.185 82.7669 319.185 79.9714H323.769C323.769 82.6694 323.239 85.0097 322.179 86.9925C321.126 88.9753 319.624 90.503 317.674 91.5757C315.724 92.6484 313.448 93.1847 310.848 93.1847C306.525 93.1847 303.151 91.8585 300.726 89.2061C298.307 86.5602 297.098 82.8806 297.098 78.1674V73.7793C297.098 69.0985 298.307 65.4255 300.726 62.7601C303.151 60.0947 306.525 58.762 310.848 58.762ZM330.643 57.5918H335.227V92.6971H330.643V57.5918ZM364.325 67.7821V87.8214C364.325 88.4065 364.455 88.8355 364.715 89.1086C364.975 89.3881 365.3 89.5279 365.69 89.5279C366.405 89.5279 367.137 89.3004 367.884 88.8453V92.2095C366.877 92.8596 365.853 93.1847 364.813 93.1847C363.057 93.1847 361.832 92.8271 361.136 92.112C360.434 91.3969 360.051 90.3893 359.986 89.0891C359.108 90.3893 357.98 91.3969 356.602 92.112C355.217 92.8271 353.631 93.1847 351.843 93.1847C349.34 93.1847 347.286 92.4436 345.68 90.9614C344.068 89.4856 343.262 87.3501 343.262 84.5546V67.7821H347.845V83.7258C347.845 87.5938 349.6 89.5279 353.111 89.5279C354.248 89.5279 355.331 89.2191 356.358 88.6015C357.379 87.9839 358.198 87.1453 358.815 86.0856C359.433 85.0325 359.742 83.872 359.742 82.6043V67.7821H364.325ZM378.221 57.5918V70.9513C378.968 69.8787 379.983 69.001 381.263 68.3184C382.551 67.6358 383.942 67.2945 385.437 67.2945C388.622 67.2945 391.093 68.4062 392.848 70.6295C394.603 72.8594 395.481 75.8758 395.481 79.6789V80.2152C395.481 84.2458 394.577 87.4151 392.77 89.7229C390.969 92.0308 388.509 93.1847 385.388 93.1847C381.683 93.1847 378.887 91.7057 377.002 88.7478L375.393 92.6971H373.638V57.5918H378.221ZM384.511 70.9513C382.333 70.9513 380.73 71.7054 379.703 73.2137C378.682 74.7284 378.172 77.0785 378.172 80.264C378.172 83.4495 378.692 85.7898 379.732 87.2851C380.773 88.7803 382.365 89.5279 384.511 89.5279C388.769 89.5279 390.898 86.4399 390.898 80.264C390.898 77.0785 390.361 74.7284 389.289 73.2137C388.216 71.7054 386.623 70.9513 384.511 70.9513Z" fill="white"/>
<path d="M187.903 49.189C179.753 49.189 173.146 42.582 173.146 34.433V14.757C173.146 6.607 179.753 0 187.903 0H207.579C215.729 0 222.336 6.607 222.335 14.757V34.433C222.335 42.583 215.728 49.19 207.579 49.189H187.903Z" fill="#FE633D"/>
<path d="M203.357 39.2297C203.331 39.2297 203.304 39.2292 203.277 39.2283C202.142 39.1906 201.181 38.4338 200.884 37.3451C200.851 37.2268 200.819 37.1063 200.788 36.989C200.754 36.8596 200.721 36.7339 200.687 36.6143C200.418 35.6629 200.21 34.7199 200.026 33.843C199.841 32.9605 199.699 32.0663 199.562 31.2015C199.425 30.3358 199.284 29.4402 199.101 28.5824C198.983 28.0327 198.72 27.4644 198.38 27.024C198.205 26.7974 197.979 26.654 197.74 26.6154C197.501 26.654 197.276 26.7978 197.1 27.0254C196.761 27.4644 196.498 28.0327 196.379 28.5838C196.197 29.4402 196.055 30.3358 195.918 31.2015C195.781 32.0663 195.64 32.9605 195.455 33.843C195.27 34.7204 195.063 35.6638 194.794 36.6143C194.76 36.7344 194.727 36.8605 194.692 36.9895C194.661 37.1068 194.629 37.2268 194.596 37.3483C194.299 38.4342 193.338 39.1911 192.205 39.2288C192.176 39.2297 192.15 39.2302 192.123 39.2302C191.133 39.2302 190.221 38.6521 189.799 37.7575C189.455 37.03 189.146 36.3718 188.856 35.688C188.561 34.9922 188.269 34.2847 187.986 33.6009C186.967 31.1345 185.914 28.5843 184.587 26.2337C183.536 24.3742 183.012 22.2345 182.984 19.6922L182.984 19.6442L182.988 19.5968C183.004 19.3994 183.019 19.2021 183.033 19.0042C183.065 18.5653 183.097 18.1115 183.154 17.6553C183.465 15.1922 184.54 13.22 186.348 11.7929C187.888 10.5767 189.669 9.95996 191.643 9.95996C192.609 9.95996 193.64 10.1094 194.708 10.404C195.736 10.6879 196.756 10.835 197.74 10.8411C198.725 10.835 199.745 10.6879 200.773 10.404C201.841 10.1094 202.872 9.95996 203.838 9.95996C205.812 9.95996 207.594 10.5767 209.133 11.7934C210.941 13.22 212.016 15.1922 212.326 17.6544C212.384 18.1124 212.417 18.5672 212.448 19.0066C212.462 19.2035 212.477 19.4003 212.493 19.5972L212.497 19.6447L212.497 19.6926C212.469 22.2345 211.944 24.3742 210.894 26.2342C209.567 28.5847 208.513 31.135 207.494 33.6009C207.212 34.2852 206.919 34.9922 206.625 35.6876C206.335 36.3699 206.026 37.029 205.681 37.7584C205.259 38.6516 204.347 39.2297 203.357 39.2297ZM197.74 24.5795L197.813 24.5846C198.661 24.6456 199.432 25.0715 199.983 25.7836C200.511 26.466 200.901 27.3089 201.083 28.1579C201.278 29.0693 201.424 29.9923 201.565 30.8845C201.697 31.7247 201.835 32.5932 202.01 33.4259C202.186 34.2679 202.385 35.17 202.637 36.0623C202.674 36.1926 202.71 36.3299 202.747 36.4709C202.777 36.5813 202.806 36.6944 202.838 36.8079C202.899 37.0332 203.106 37.1943 203.342 37.2022H203.357C203.566 37.2022 203.759 37.0802 203.848 36.8917C204.184 36.1819 204.484 35.5428 204.758 34.8958C205.049 34.2093 205.339 33.5064 205.621 32.8264C206.663 30.3041 207.741 27.6952 209.129 25.2367C210.001 23.6928 210.439 21.8868 210.469 19.7159C210.454 19.5279 210.44 19.3398 210.427 19.1518C210.396 18.7194 210.366 18.3107 210.316 17.9067C210.07 15.9648 209.273 14.4851 207.877 13.3839C206.687 12.4436 205.366 11.987 203.838 11.987C203.055 11.987 202.205 12.1118 201.313 12.358C200.111 12.6899 198.911 12.8616 197.747 12.8681H197.735C196.57 12.8616 195.37 12.6899 194.169 12.358C193.277 12.1118 192.427 11.987 191.643 11.987C190.115 11.987 188.794 12.4436 187.605 13.3834C186.209 14.4851 185.411 15.9648 185.165 17.9081C185.115 18.3102 185.085 18.718 185.054 19.1499C185.041 19.3389 185.027 19.5274 185.012 19.7164C185.041 21.8868 185.48 23.6932 186.352 25.2367C187.74 27.6957 188.818 30.3036 189.86 32.8264C190.141 33.5064 190.432 34.2093 190.723 34.8963C190.998 35.5442 191.298 36.1833 191.633 36.8908C191.722 37.0807 191.915 37.2026 192.124 37.2026L192.141 37.2022C192.375 37.1943 192.581 37.0337 192.642 36.8107C192.674 36.6944 192.704 36.5813 192.734 36.4709C192.771 36.3299 192.807 36.1926 192.844 36.0618C193.097 35.17 193.295 34.2679 193.472 33.4255C193.647 32.5928 193.784 31.7242 193.917 30.8841C194.058 29.9918 194.204 29.0688 194.398 28.1584C194.58 27.308 194.971 26.465 195.497 25.7841C196.049 25.071 196.82 24.6451 197.668 24.5841L197.74 24.5795Z" fill="white"/>
<path d="M189.65 27.04C189.355 27.04 189.069 26.8855 188.914 26.6104C188.773 26.3604 188.632 26.1184 188.495 25.8819C187.45 24.0811 186.463 22.3799 186.778 19.8953C187.022 17.9631 187.866 16.4155 189.285 15.2952C191.091 13.8681 193.299 13.5013 195.844 14.2041C196.642 14.4243 197.433 14.5383 198.196 14.5425C198.949 14.5383 199.74 14.4243 200.537 14.2041C200.987 14.0803 201.452 14.3438 201.576 14.7934C201.701 15.243 201.437 15.708 200.987 15.8323C200.046 16.092 199.108 16.2265 198.196 16.2317C197.274 16.2265 196.335 16.092 195.395 15.8323C193.368 15.2728 191.712 15.5307 190.333 16.6208C189.258 17.4693 188.643 18.6097 188.454 20.107C188.212 22.0256 188.943 23.288 189.957 25.0344C190.097 25.2769 190.241 25.5245 190.385 25.7796C190.614 26.1859 190.471 26.7012 190.065 26.9302C189.933 27.0046 189.79 27.04 189.65 27.04Z" fill="white"/>
</svg>
