<svg width="396" height="94" viewBox="0 0 396 94" fill="none" xmlns="http://www.w3.org/2000/svg">
<path d="M12.794 58.762C16.467 58.762 19.3535 59.5746 21.4533 61.1998C23.5466 62.8251 24.5933 65.1329 24.5933 68.1234V68.7085H19.815V67.9771C19.815 66.4169 19.1812 65.2142 17.9135 64.3691C16.6458 63.5239 14.9718 63.1014 12.8915 63.1014C10.5836 63.1014 8.78936 63.4817 7.50867 64.2423C6.22147 65.0094 5.57787 66.1081 5.57787 67.5383C5.57787 68.611 5.94518 69.4886 6.67979 70.1712C7.4079 70.8538 8.31804 71.3901 9.4102 71.7802C10.4959 72.1703 11.9976 72.6091 13.9154 73.0966C16.3858 73.7467 18.3848 74.3806 19.9125 74.9982C21.4403 75.6158 22.7502 76.5422 23.8424 77.7774C24.9281 79.0125 25.4709 80.654 25.4709 82.7019C25.4709 86.3424 24.3592 88.9981 22.1359 90.6688C19.906 92.3461 16.7758 93.1847 12.7452 93.1847C8.7146 93.1847 5.58763 92.3298 3.36429 90.6201C1.13445 88.9168 0.0195312 86.4399 0.0195312 83.1894L0.0682888 82.2143H4.84651L4.79776 83.2382C4.79776 85.1235 5.50636 86.5277 6.92358 87.4508C8.33429 88.3805 10.2911 88.8453 12.794 88.8453C15.2318 88.8453 17.1594 88.3967 18.5766 87.4996C19.9873 86.6089 20.6927 85.3835 20.6927 83.8233C20.6927 82.5881 20.3124 81.5869 19.5517 80.8198C18.7846 80.0592 17.8257 79.4676 16.6751 79.0451C15.5179 78.6225 13.9479 78.1512 11.9651 77.6311C9.52722 76.981 7.57693 76.3634 6.11421 75.7783C4.65148 75.1932 3.40004 74.2896 2.35989 73.0674C1.31973 71.8517 0.79965 70.2525 0.79965 68.2697C0.79965 65.0517 1.88856 62.6626 4.0664 61.1023C6.24423 59.5421 9.15342 58.762 12.794 58.762ZM58.3821 67.2945C60.95 67.2945 62.9491 68.0421 64.3793 69.5374C65.8095 71.0326 66.5246 73.1617 66.5246 75.9246V92.6971H61.9414V76.7535C61.9414 72.8854 60.4462 70.9513 57.4557 70.9513C56.4156 70.9513 55.4469 71.2601 54.5498 71.8777C53.6592 72.4953 52.9441 73.3307 52.4045 74.3838C51.8714 75.4435 51.6049 76.6072 51.6049 77.8749V92.6971H47.0217V76.7535C47.0217 72.8854 45.5264 70.9513 42.536 70.9513C41.4958 70.9513 40.5272 71.2601 39.63 71.8777C38.7394 72.4953 38.0243 73.3307 37.4847 74.3838C36.9516 75.4435 36.6851 76.6072 36.6851 77.8749V92.6971H32.1019V67.7821H35.4174L36.0512 71.4389C37.9365 68.676 40.5532 67.2945 43.9012 67.2945C47.1842 67.2945 49.4595 68.676 50.7272 71.4389C51.8324 69.8787 53.0188 68.7962 54.2865 68.1917C55.5542 67.5936 56.9194 67.2945 58.3821 67.2945ZM74.277 57.5918H79.0553V61.8337H74.277V57.5918ZM74.3746 67.7821H78.9578V92.6971H74.3746V67.7821ZM87.2368 57.5918H91.82V92.6971H87.2368V57.5918ZM110.104 67.2945C112.152 67.2945 113.966 67.7236 115.545 68.5817C117.119 69.4463 118.344 70.675 119.222 72.2678C120.099 73.8605 120.538 75.7133 120.538 77.8261V81.2879H103.132C103.197 83.9208 103.814 85.9523 104.984 87.3826C106.155 88.8128 107.894 89.5279 110.201 89.5279C112.249 89.5279 113.761 88.9265 114.736 87.7239C115.711 86.5212 116.199 85.091 116.199 83.4332H120.538C120.538 85.3835 120.093 87.09 119.202 88.5527C118.305 90.0155 117.07 91.1531 115.497 91.9658C113.917 92.7784 112.119 93.1847 110.104 93.1847H109.909C106.398 93.1847 103.629 92.0535 101.601 89.7912C99.5659 87.5353 98.5485 84.5221 98.5485 80.7516V79.7764C98.5485 77.306 99.0035 75.1282 99.9137 73.2429C100.824 71.3576 102.124 69.8949 103.814 68.8548C105.505 67.8146 107.487 67.2945 109.763 67.2945H110.104ZM109.86 70.9513C108.007 70.9513 106.506 71.5202 105.355 72.6578C104.198 73.7955 103.489 75.4858 103.229 77.7286H116.004V77.1435C116.004 75.2907 115.445 73.7955 114.326 72.6578C113.202 71.5202 111.713 70.9513 109.86 70.9513ZM151.158 59.2495C153.953 59.2495 156.391 59.8574 158.471 61.0731C160.552 62.2953 162.161 64.0343 163.298 66.2901C164.436 68.5525 165.005 71.2114 165.005 74.2668V77.6798C165.005 80.7353 164.436 83.391 163.298 85.6468C162.161 87.9091 160.552 89.6482 158.471 90.8638C156.391 92.086 153.953 92.6971 151.158 92.6971H139.553V59.2495H151.158ZM151.158 63.589H144.332V88.3577H151.158C154.051 88.3577 156.284 87.4541 157.857 85.6468C159.437 83.846 160.227 81.1904 160.227 77.6798V74.2668C160.227 70.8213 159.453 68.1787 157.906 66.3389C156.365 64.5056 154.116 63.589 151.158 63.589ZM182.011 67.2945C184.059 67.2945 185.873 67.7236 187.453 68.5817C189.026 69.4463 190.251 70.675 191.129 72.2678C192.007 73.8605 192.445 75.7133 192.445 77.8261V81.2879H175.039C175.104 83.9208 175.722 85.9523 176.892 87.3826C178.062 88.8128 179.801 89.5279 182.109 89.5279C184.157 89.5279 185.668 88.9265 186.643 87.7239C187.618 86.5212 188.106 85.091 188.106 83.4332H192.445C192.445 85.3835 192 87.09 191.11 88.5527C190.212 90.0155 188.977 91.1531 187.404 91.9658C185.824 92.7784 184.027 93.1847 182.011 93.1847H181.816C178.306 93.1847 175.536 92.0535 173.508 89.7912C171.473 87.5353 170.456 84.5221 170.456 80.7516V79.7764C170.456 77.306 170.911 75.1282 171.821 73.2429C172.731 71.3576 174.031 69.8949 175.722 68.8548C177.412 67.8146 179.395 67.2945 181.67 67.2945H182.011ZM181.768 70.9513C179.915 70.9513 178.413 71.5202 177.262 72.6578C176.105 73.7955 175.397 75.4858 175.137 77.7286H187.911V77.1435C187.911 75.2907 187.352 73.7955 186.234 72.6578C185.109 71.5202 183.62 70.9513 181.768 70.9513ZM211.412 67.2945C214.143 67.2945 216.288 68.0259 217.848 69.4886C219.408 70.9513 220.188 73.0966 220.188 75.9246V92.6971H215.605V76.7535C215.605 72.8854 213.85 70.9513 210.339 70.9513C209.169 70.9513 208.08 71.2601 207.073 71.8777C206.065 72.4953 205.252 73.3307 204.635 74.3838C204.017 75.4435 203.708 76.6072 203.708 77.8749V92.6971H199.125V67.7821H202.441L203.075 71.4389C205.155 68.676 207.934 67.2945 211.412 67.2945ZM233.158 59.8346V67.7821H238.96V71.4389H233.158V86.3099C233.158 87.4801 233.385 88.3252 233.84 88.8453C234.296 89.3654 234.994 89.6254 235.937 89.6254C236.782 89.6254 237.79 89.3816 238.96 88.894V92.3071C237.79 92.8921 236.278 93.1847 234.426 93.1847C232.508 93.1847 231.052 92.6159 230.057 91.4782C229.069 90.3405 228.575 88.5365 228.575 86.0661V71.4389H225.844V67.7821H228.721L230.281 59.8346H233.158ZM254.465 67.2945C257.748 67.2945 260.192 67.9446 261.798 69.2448C263.41 70.545 264.216 72.4303 264.216 74.9007V87.8214C264.216 88.4065 264.346 88.8355 264.606 89.1086C264.866 89.3881 265.191 89.5279 265.582 89.5279C266.329 89.5279 267.077 89.3004 267.824 88.8453V92.2095C266.719 92.8596 265.468 93.1847 264.07 93.1847C262.672 93.1847 261.632 92.7849 260.95 91.9853C260.267 91.1921 259.893 90.0967 259.828 88.699C257.813 91.6895 254.904 93.1847 251.101 93.1847C248.37 93.1847 246.329 92.5899 244.977 91.4002C243.631 90.217 242.958 88.3415 242.958 85.7736C242.958 83.7583 243.478 82.172 244.518 81.0148C245.559 79.8642 247.281 79.0288 249.687 78.5087C252.092 77.9886 255.407 77.7286 259.633 77.7286V75.437C259.633 73.7793 259.146 72.6156 258.17 71.946C257.195 71.2829 255.781 70.9513 253.929 70.9513C252.173 70.9513 250.808 71.2926 249.833 71.9752C248.858 72.6578 248.37 73.6167 248.37 74.8519V75.437H243.885C243.819 74.9819 243.787 74.4456 243.787 73.828C243.787 72.6903 244.242 71.6177 245.152 70.61C246.062 69.6024 247.298 68.7962 248.858 68.1917C250.418 67.5936 252.141 67.2945 254.026 67.2945H254.465ZM259.633 81.2879C256.22 81.2879 253.642 81.4569 251.9 81.795C250.164 82.1395 249.004 82.6531 248.419 83.3357C247.834 84.0183 247.541 84.9609 247.541 86.1636C247.541 88.4065 249.248 89.5279 252.661 89.5279C253.864 89.5279 255.001 89.2288 256.074 88.6308C257.147 88.0262 258.008 87.1713 258.658 86.0661C259.308 84.9609 259.633 83.6933 259.633 82.263V81.2879ZM273.373 57.5918H277.956V92.6971H273.373V57.5918ZM310.867 58.762C313.468 58.762 315.743 59.2983 317.693 60.371C319.644 61.4436 321.145 62.9779 322.199 64.9737C323.258 66.976 323.788 69.3423 323.788 72.0727H319.01C319.01 69.2448 318.311 67.041 316.913 65.4612C315.516 63.888 313.5 63.1014 310.867 63.1014C307.942 63.1014 305.715 64.0018 304.188 65.8025C302.66 67.6098 301.896 70.2687 301.896 73.7793V78.1674C301.896 81.6454 302.644 84.2946 304.139 86.1149C305.634 87.9351 307.844 88.8453 310.77 88.8453C313.5 88.8453 315.587 88.0652 317.03 86.5049C318.48 84.9447 319.205 82.7669 319.205 79.9714H323.788C323.788 82.6694 323.258 85.0097 322.199 86.9925C321.145 88.9753 319.644 90.503 317.693 91.5757C315.743 92.6484 313.468 93.1847 310.867 93.1847C306.544 93.1847 303.17 91.8585 300.745 89.2061C298.327 86.5602 297.118 82.8806 297.118 78.1674V73.7793C297.118 69.0985 298.327 65.4255 300.745 62.7601C303.17 60.0947 306.544 58.762 310.867 58.762ZM330.663 57.5918H335.246V92.6971H330.663V57.5918ZM364.345 67.7821V87.8214C364.345 88.4065 364.475 88.8355 364.735 89.1086C364.995 89.3881 365.32 89.5279 365.71 89.5279C366.425 89.5279 367.156 89.3004 367.904 88.8453V92.2095C366.896 92.8596 365.872 93.1847 364.832 93.1847C363.077 93.1847 361.851 92.8271 361.156 92.112C360.454 91.3969 360.07 90.3893 360.005 89.0891C359.128 90.3893 358 91.3969 356.621 92.112C355.237 92.8271 353.65 93.1847 351.863 93.1847C349.36 93.1847 347.305 92.4436 345.7 90.9614C344.087 89.4856 343.281 87.3501 343.281 84.5546V67.7821H347.865V83.7258C347.865 87.5938 349.62 89.5279 353.13 89.5279C354.268 89.5279 355.35 89.2191 356.378 88.6015C357.398 87.9839 358.217 87.1453 358.835 86.0856C359.453 85.0325 359.761 83.872 359.761 82.6043V67.7821H364.345ZM378.24 57.5918V70.9513C378.988 69.8787 380.002 69.001 381.283 68.3184C382.57 67.6358 383.961 67.2945 385.456 67.2945C388.642 67.2945 391.112 68.4062 392.868 70.6295C394.623 72.8594 395.501 75.8758 395.501 79.6789V80.2152C395.501 84.2458 394.597 87.4151 392.79 89.7229C390.989 92.0308 388.528 93.1847 385.408 93.1847C381.702 93.1847 378.907 91.7057 377.021 88.7478L375.412 92.6971H373.657V57.5918H378.24ZM384.53 70.9513C382.352 70.9513 380.75 71.7054 379.723 73.2137C378.702 74.7284 378.192 77.0785 378.192 80.264C378.192 83.4495 378.712 85.7898 379.752 87.2851C380.792 88.7803 382.385 89.5279 384.53 89.5279C388.788 89.5279 390.917 86.4399 390.917 80.264C390.917 77.0785 390.381 74.7284 389.308 73.2137C388.236 71.7054 386.643 70.9513 384.53 70.9513Z" fill="#202046"/>
<path d="M187.922 49.189C179.772 49.189 173.165 42.582 173.165 34.433V14.757C173.165 6.607 179.772 0 187.922 0H207.598C215.748 0 222.355 6.607 222.354 14.757V34.433C222.354 42.583 215.747 49.19 207.598 49.189H187.922Z" fill="#FE633D"/>
<path d="M203.377 39.2297C203.35 39.2297 203.324 39.2292 203.297 39.2283C202.161 39.1906 201.201 38.4338 200.903 37.3451C200.871 37.2268 200.839 37.1063 200.808 36.989C200.774 36.8596 200.74 36.7339 200.706 36.6143C200.437 35.6629 200.23 34.7199 200.045 33.843C199.86 32.9605 199.719 32.0663 199.582 31.2015C199.445 30.3358 199.303 29.4402 199.121 28.5824C199.003 28.0327 198.74 27.4644 198.4 27.024C198.224 26.7974 197.999 26.654 197.76 26.6154C197.521 26.654 197.296 26.7978 197.119 27.0254C196.78 27.4644 196.517 28.0327 196.399 28.5838C196.216 29.4402 196.075 30.3358 195.938 31.2015C195.801 32.0663 195.659 32.9605 195.474 33.843C195.29 34.7204 195.082 35.6638 194.813 36.6143C194.779 36.7344 194.746 36.8605 194.712 36.9895C194.681 37.1068 194.649 37.2268 194.615 37.3483C194.319 38.4342 193.358 39.1911 192.225 39.2288C192.196 39.2297 192.169 39.2302 192.143 39.2302C191.153 39.2302 190.241 38.6521 189.819 37.7575C189.474 37.03 189.166 36.3718 188.876 35.688C188.581 34.9922 188.288 34.2847 188.006 33.6009C186.987 31.1345 185.934 28.5843 184.606 26.2337C183.556 24.3742 183.032 22.2345 183.004 19.6922L183.003 19.6442L183.007 19.5968C183.024 19.3994 183.038 19.2021 183.053 19.0042C183.084 18.5653 183.117 18.1115 183.174 17.6553C183.485 15.1922 184.56 13.22 186.368 11.7929C187.907 10.5767 189.689 9.95996 191.663 9.95996C192.629 9.95996 193.66 10.1094 194.728 10.404C195.755 10.6879 196.776 10.835 197.76 10.8411C198.744 10.835 199.765 10.6879 200.792 10.404C201.86 10.1094 202.891 9.95996 203.857 9.95996C205.831 9.95996 207.613 10.5767 209.152 11.7934C210.96 13.22 212.035 15.1922 212.346 17.6544C212.403 18.1124 212.436 18.5672 212.468 19.0066C212.482 19.2035 212.496 19.4003 212.513 19.5972L212.517 19.6447L212.516 19.6926C212.488 22.2345 211.964 24.3742 210.913 26.2342C209.586 28.5847 208.533 31.135 207.514 33.6009C207.231 34.2852 206.939 34.9922 206.644 35.6876C206.355 36.3699 206.046 37.029 205.7 37.7584C205.279 38.6516 204.367 39.2297 203.377 39.2297ZM197.76 24.5795L197.833 24.5846C198.681 24.6456 199.451 25.0715 200.003 25.7836C200.53 26.466 200.92 27.3089 201.103 28.1579C201.297 29.0693 201.444 29.9923 201.584 30.8845C201.717 31.7247 201.855 32.5932 202.029 33.4259C202.206 34.2679 202.404 35.17 202.657 36.0623C202.693 36.1926 202.73 36.3299 202.767 36.4709C202.796 36.5813 202.826 36.6944 202.857 36.8079C202.919 37.0332 203.126 37.1943 203.361 37.2022H203.376C203.586 37.2022 203.778 37.0802 203.867 36.8917C204.203 36.1819 204.503 35.5428 204.778 34.8958C205.069 34.2093 205.359 33.5064 205.64 32.8264C206.682 30.3041 207.76 27.6952 209.148 25.2367C210.02 23.6928 210.459 21.8868 210.489 19.7159C210.473 19.5279 210.46 19.3398 210.446 19.1518C210.415 18.7194 210.386 18.3107 210.335 17.9067C210.09 15.9648 209.292 14.4851 207.897 13.3839C206.707 12.4436 205.386 11.987 203.858 11.987C203.074 11.987 202.224 12.1118 201.332 12.358C200.131 12.6899 198.931 12.8616 197.766 12.8681H197.754C196.59 12.8616 195.39 12.6899 194.188 12.358C193.296 12.1118 192.446 11.987 191.663 11.987C190.134 11.987 188.813 12.4436 187.624 13.3834C186.228 14.4851 185.431 15.9648 185.185 17.9081C185.134 18.3102 185.105 18.718 185.074 19.1499C185.06 19.3389 185.047 19.5274 185.031 19.7164C185.061 21.8868 185.5 23.6932 186.372 25.2367C187.76 27.6957 188.838 30.3036 189.88 32.8264C190.161 33.5064 190.451 34.2093 190.742 34.8963C191.017 35.5442 191.317 36.1833 191.652 36.8908C191.742 37.0807 191.934 37.2026 192.144 37.2026L192.161 37.2022C192.394 37.1943 192.601 37.0337 192.662 36.8107C192.694 36.6944 192.724 36.5813 192.753 36.4709C192.79 36.3299 192.827 36.1926 192.864 36.0618C193.116 35.17 193.314 34.2679 193.491 33.4255C193.666 32.5928 193.804 31.7242 193.936 30.8841C194.077 29.9918 194.223 29.0688 194.418 28.1584C194.6 27.308 194.991 26.465 195.516 25.7841C196.069 25.071 196.84 24.6451 197.688 24.5841L197.76 24.5795Z" fill="white"/>
<path d="M189.669 27.04C189.375 27.04 189.089 26.8855 188.933 26.6104C188.792 26.3604 188.651 26.1184 188.514 25.8819C187.47 24.0811 186.483 22.3799 186.797 19.8953C187.041 17.9631 187.885 16.4155 189.305 15.2952C191.111 13.8681 193.318 13.5013 195.864 14.2041C196.661 14.4243 197.452 14.5383 198.215 14.5425C198.968 14.5383 199.76 14.4243 200.557 14.2041C201.007 14.0803 201.472 14.3438 201.596 14.7934C201.72 15.243 201.456 15.708 201.007 15.8323C200.066 16.092 199.127 16.2265 198.215 16.2317C197.294 16.2265 196.354 16.092 195.414 15.8323C193.388 15.2728 191.732 15.5307 190.352 16.6208C189.278 17.4693 188.663 18.6097 188.474 20.107C188.231 22.0256 188.963 23.288 189.976 25.0344C190.117 25.2769 190.26 25.5245 190.404 25.7796C190.634 26.1859 190.49 26.7012 190.084 26.9302C189.953 27.0046 189.81 27.04 189.669 27.04Z" fill="white"/>
</svg>
