<?xml version="1.0" encoding="UTF-8"?>
<svg xmlns="http://www.w3.org/2000/svg" width="65" height="65" viewBox="0 0 65 65" fill="none">
  <path d="M19.8047 9.64844C19.8063 8.18491 19.3862 6.75191 18.5947 5.52086C17.8032 4.28981 16.6738 3.31284 15.3417 2.70682C14.0095 2.10079 12.5309 1.89137 11.0829 2.10361C9.63481 2.31585 8.27855 2.94076 7.17633 3.90358C6.0741 4.86641 5.27259 6.12638 4.86766 7.53278C4.46274 8.93918 4.47155 10.4325 4.89304 11.834C5.31453 13.2355 6.13085 14.4859 7.24436 15.4357C8.35786 16.3855 9.72141 16.9943 11.1719 17.1895V22.3438H10.1562C9.61752 22.3438 9.10087 22.5578 8.71994 22.9387C8.339 23.3196 8.125 23.8363 8.125 24.375V58.9063C8.125 59.9837 8.55301 61.017 9.31487 61.7789C10.0767 62.5407 11.1101 62.9688 12.1875 62.9688C13.2649 62.9688 14.2983 62.5407 15.0601 61.7789C15.822 61.017 16.25 59.9837 16.25 58.9063V24.375C16.25 23.8363 16.036 23.3196 15.6551 22.9387C15.2741 22.5578 14.7575 22.3438 14.2187 22.3438H13.2031V17.1895C15.0295 16.9437 16.705 16.0442 17.9188 14.6576C19.1327 13.271 19.8027 11.4913 19.8047 9.64844ZM14.2187 58.9063C14.2187 59.445 14.0047 59.9616 13.6238 60.3426C13.2429 60.7235 12.7262 60.9375 12.1875 60.9375C11.6488 60.9375 11.1321 60.7235 10.7512 60.3426C10.3703 59.9616 10.1562 59.445 10.1562 58.9063V51.7969H14.2187V58.9063ZM14.2187 49.7656H10.1562V35.5469H14.2187V49.7656ZM14.2187 24.375V33.5156H10.1562V24.375H14.2187ZM12.1875 15.2344C11.0827 15.2344 10.0027 14.9068 9.08412 14.293C8.16551 13.6792 7.44955 12.8068 7.02676 11.7861C6.60398 10.7654 6.49336 9.64224 6.70889 8.55868C6.92442 7.47511 7.45643 6.47979 8.23764 5.69858C9.01885 4.91738 10.0142 4.38537 11.0977 4.16983C12.1813 3.9543 13.3044 4.06492 14.3251 4.4877C15.3458 4.91049 16.2182 5.62646 16.832 6.54506C17.4458 7.46366 17.7734 8.54364 17.7734 9.64844C17.7718 11.1294 17.1828 12.5493 16.1356 13.5965C15.0884 14.6437 13.6685 15.2328 12.1875 15.2344Z" fill="#E2403E"></path>
  <path d="M12.1875 6.09375C11.9181 6.09375 11.6598 6.20075 11.4693 6.39122C11.2789 6.58169 11.1719 6.84001 11.1719 7.10938C11.1719 7.37874 11.2789 7.63706 11.4693 7.82753C11.6598 8.018 11.9181 8.125 12.1875 8.125C12.5915 8.125 12.979 8.2855 13.2647 8.5712C13.5504 8.8569 13.7109 9.2444 13.7109 9.64844C13.7109 9.9178 13.8179 10.1761 14.0084 10.3666C14.1989 10.5571 14.4572 10.6641 14.7266 10.6641C14.9959 10.6641 15.2543 10.5571 15.4447 10.3666C15.6352 10.1761 15.7422 9.9178 15.7422 9.64844C15.7422 8.70568 15.3677 7.80153 14.701 7.13489C14.0344 6.46826 13.1303 6.09375 12.1875 6.09375Z" fill="#E2403E"></path>
  <path d="M34.5729 50.7813C35.1002 50.7807 35.6058 50.5711 35.9788 50.1983C36.3518 49.8255 36.5617 49.32 36.5625 48.7927V16.2073C36.5617 15.68 36.3518 15.1745 35.9788 14.8017C35.6058 14.4289 35.1002 14.2193 34.5729 14.2188H33.5867L33.5156 9.12641C33.5124 8.93072 33.4532 8.74005 33.345 8.57695L31.9048 6.41672L36.0689 3.91727C36.2946 3.77606 36.4557 3.55191 36.5178 3.29306C36.5798 3.03421 36.5378 2.76135 36.4007 2.53319C36.2636 2.30503 36.0424 2.13982 35.7847 2.07311C35.527 2.0064 35.2534 2.04352 35.0228 2.17648L29.9447 5.22336C29.8276 5.29472 29.726 5.38894 29.6461 5.50039C29.5661 5.61184 29.5094 5.73825 29.4794 5.87207C29.4494 6.0059 29.4466 6.1444 29.4712 6.27933C29.4958 6.41425 29.5474 6.54284 29.6227 6.65742L31.4844 9.45445L31.5555 14.2188H30.4271C29.8998 14.2193 29.3942 14.4289 29.0212 14.8017C28.6482 15.1745 28.4383 15.68 28.4375 16.2073V48.7927C28.4383 49.32 28.6482 49.8255 29.0212 50.1983C29.3942 50.5711 29.8998 50.7807 30.4271 50.7813H31.4844V54.9758C31.4887 55.4303 31.6438 55.8705 31.9255 56.2273C32.2071 56.5841 32.5992 56.8373 33.0403 56.9471C33.515 57.0771 33.9264 57.375 34.198 57.7855C34.4695 58.196 34.5828 58.6911 34.5168 59.1788C34.4508 59.6665 34.2099 60.1137 33.8389 60.4372C33.468 60.7607 32.9922 60.9385 32.5 60.9375H29.4531C29.1838 60.9375 28.9254 61.0445 28.735 61.235C28.5445 61.4254 28.4375 61.6838 28.4375 61.9531C28.4375 62.2225 28.5445 62.4808 28.735 62.6713C28.9254 62.8618 29.1838 62.9688 29.4531 62.9688H32.5C33.4868 62.9659 34.4387 62.6041 35.1782 61.9507C35.9177 61.2974 36.3941 60.3972 36.5185 59.4184C36.6429 58.4395 36.4067 57.4488 35.8541 56.6313C35.3016 55.8137 34.4703 55.2253 33.5156 54.9758V50.7813H34.5729ZM30.4271 16.25L34.5312 16.2073V21.3281H30.4332L30.4271 16.25ZM30.4363 23.3594H34.5312V41.6406H30.4596L30.4363 23.3594ZM30.4688 48.7927L30.4627 43.6719H34.5312V48.75L30.4688 48.7927Z" fill="#E2403E"></path>
  <path d="M60.8603 2.65789C60.7834 2.47235 60.6532 2.31379 60.4861 2.20225C60.3191 2.09071 60.1227 2.0312 59.9219 2.03125H55.8594C55.6215 2.03112 55.3911 2.11451 55.2084 2.26688L49.1146 7.345C49.0004 7.44037 48.9086 7.55967 48.8456 7.69445C48.7826 7.82924 48.7499 7.97622 48.75 8.125V58.9062C48.75 59.9837 49.178 61.017 49.9399 61.7789C50.7017 62.5407 51.7351 62.9687 52.8125 62.9687C53.8899 62.9687 54.9233 62.5407 55.6851 61.7789C56.447 61.017 56.875 59.9837 56.875 58.9062V25.3906C56.8749 25.3485 56.8721 25.3065 56.8669 25.2647L54.8976 9.50727L60.6399 3.76492C60.782 3.62289 60.8788 3.4419 60.9181 3.24484C60.9573 3.04779 60.9372 2.84352 60.8603 2.65789ZM54.8438 58.9062C54.8438 59.445 54.6297 59.9616 54.2488 60.3426C53.8679 60.7235 53.3512 60.9375 52.8125 60.9375C52.2738 60.9375 51.7571 60.7235 51.3762 60.3426C50.9953 59.9616 50.7813 59.445 50.7813 58.9062V46.7187H54.8438V58.9062ZM54.8438 44.6875H50.7813V42.6562H54.8438V44.6875ZM54.8438 40.625H50.7813V38.5937H54.8438V40.625ZM54.8438 36.5625H50.7813V34.5312H54.8438V36.5625ZM54.8438 32.5H50.7813V30.4687H54.8438V32.5ZM54.8438 28.4375H50.7813V26.4062H54.8438V28.4375ZM53.1101 8.42258C53.0008 8.53194 52.9179 8.66482 52.8677 8.81108C52.8175 8.95735 52.8014 9.11313 52.8206 9.26656L54.7087 24.375H50.7813V8.60031L56.227 4.0625H57.4702L53.1101 8.42258Z" fill="#E2403E"></path>
</svg>
