<svg width="721" height="470" fill="none" xmlns="http://www.w3.org/2000/svg"><path d="M635.193 191.673a119.482 119.482 0 0 1-9.093 24.614s-9.19 18.587-9.19 47.848c0 15.32-4.18 42.838-10.266 64.935a134.145 134.145 0 0 1-8.506 23.621c-4.889 9.076-18.773 7.503-21.999-2.42-9.997-34.416-17.11-120.625-35.956-120.213-19.163-.387-25.958 85.822-35.931 120.213-3.202 9.875-17.11 11.448-21.998 2.42a128.691 128.691 0 0 1-8.775-23.694c-1.614-5.687-3.08-11.762-4.376-17.861 7.749-29.793 12.931-65.105 12.931-85.289 0-40.733 12.783-66.605 12.783-66.605a166.423 166.423 0 0 0 12.662-34.247 196.099 196.099 0 0 0 4.057-20.838l28.623 3.776 35.956-4.841a134.216 134.216 0 0 1 30.358-.799 43.303 43.303 0 0 1 21.558 12.658 53.78 53.78 0 0 1 11.195 28.874 155.64 155.64 0 0 1-4.033 47.848Zm-409.639-32.431a171.397 171.397 0 0 1-12.222-34.247 206.695 206.695 0 0 1-4.008-20.838l-28.696 3.776-35.931-4.841a137.811 137.811 0 0 0-30.75-.799 44.084 44.084 0 0 0-21.167 12.658 57.356 57.356 0 0 0-11.586 28.874c-.814 16.04.65 32.114 4.35 47.751a123.073 123.073 0 0 0 8.85 24.59s9.165 18.587 9.165 47.848c0 15.296 4.156 42.765 10.388 64.862a128.836 128.836 0 0 0 8.775 23.694c4.889 9.076 18.773 7.503 21.999-2.42 9.973-34.416 16.768-120.625 35.931-120.213 18.772-.387 25.959 85.821 35.956 120.213 3.202 9.875 17.11 11.448 21.998 2.42a134.07 134.07 0 0 0 8.507-23.621c1.613-5.833 3.079-12.101 4.375-18.273-7.846-29.721-13.004-64.862-13.004-84.95-.098-40.588-12.93-66.484-12.93-66.484Zm254.353 0a166.48 166.48 0 0 0 12.662-34.247 196.35 196.35 0 0 0 4.057-20.838 223.882 223.882 0 0 0 1.638-45.621c-.538-14.328-8.335-31.923-15.57-40.176-7.235-8.253-20.557-15.974-30.016-17.62a186.763 186.763 0 0 0-42.238 1.09l-50.034 6.607-49.962-6.632A191.69 191.69 0 0 0 267.645.716c-8.873 1.646-22.243 9.342-29.332 17.62-7.088 8.277-15.008 25.872-16.132 40.175a249.72 249.72 0 0 0 2.053 45.622 206.694 206.694 0 0 0 3.764 20.862 171.335 171.335 0 0 0 12.222 34.247s12.783 25.872 12.783 66.605c0 20.088 5.158 55.205 13.004 84.95.464 1.791.953 3.582 1.442 5.349a179.324 179.324 0 0 0 12.222 32.988c6.673 12.633 26.129 10.455 30.578-3.292 13.883-47.896 23.343-167.892 50.01-167.335 26.129-.557 36.127 119.439 50.035 167.335 4.448 13.747 23.905 15.949 30.553 3.292a186.544 186.544 0 0 0 12.026-32.891c.465-1.67.905-3.389 1.369-5.107 7.749-29.793 12.93-65.105 12.93-85.289.025-40.709 12.809-66.605 12.809-66.605h-.074ZM11.848 454.747h698.341l-.71 15.253H12.876l-1.028-15.253ZM581.43 379.04c-8.744 0-16.924-.146-24.493-.414-22.901-.78-46.071-2.997-69.976-2.997-31.057 0-63.29 3.777-97.678 19.493a221.834 221.834 0 0 0-28.044 15.302 226.885 226.885 0 0 0-28.51-15.302c-34.78-15.57-67.257-19.323-98.486-19.323-23.611 0-46.536 2.145-69.143 2.9-7.593.268-15.774.414-24.493.414A764.72 764.72 0 0 1 6.043 366.93c.196 2.29.376 4.621.539 6.993.212 3.005.384 5.962.514 8.869l15.627 2.437a777.907 777.907 0 0 0 117.884 9.162c8.303 0 16.729-.146 25.032-.414 8.866-.293 17.855-.804 26.55-1.316 13.74-.78 27.971-1.584 42.079-1.584 24.223 0 56.603 2.047 92.167 17.958a211.903 211.903 0 0 1 26.574 14.255 15.448 15.448 0 0 0 16.607 0 206.65 206.65 0 0 1 26.084-14.23c27.408-12.476 55.55-18.032 91.261-18.032 14.181 0 28.461.829 42.275 1.633 8.891.512 18.1 1.048 27.162 1.364 8.303.293 16.729.415 25.032.415a777.897 777.897 0 0 0 117.884-9.162l15.651-2.754a376.562 376.562 0 0 1 1.005-15.545c-44.4 7.972-89.423 12-134.54 12.037v.024ZM.581 424.264l155.432 1.901L.948 415.102l-.367 9.162Zm719.063-9.186L564.579 426.14l155.432-1.9-.367-9.162Z" fill="#FAF9F9"/></svg>