<svg width="73" height="11" viewBox="0 0 73 11" fill="none" xmlns="http://www.w3.org/2000/svg">
<g clip-path="url(#clip0_55_8098)">
<path d="M49.7847 0C46.9567 0 44.7207 2.32941 44.7207 5.17647C44.7207 8.02353 47.0225 10.3529 49.7847 10.3529C52.6126 10.3529 54.8486 8.02353 54.8486 5.17647C54.9144 2.32941 52.6126 0 49.7847 0ZM49.7847 8.79998C47.8117 8.79998 46.2991 7.18234 46.2991 5.24116C46.2991 3.29998 47.8775 1.68234 49.7847 1.68234C51.6919 1.68234 53.2703 3.29998 53.2703 5.24116C53.2703 7.18234 51.7577 8.79998 49.7847 8.79998Z" fill="#FDFDFD"/>
<path d="M67.5415 1.87644V4.39998H71.8163V6.01763H67.5415V8.4764H72.4082V10.0941H65.9631V0.258789H72.4082V1.87644H67.5415Z" fill="#FDFDFD"/>
<path d="M63.9902 0.258789V10.1588H62.4776L58.0713 3.42939V10.1588H56.4929V0.258789H57.9397L58.1371 0.517628L62.4118 6.92353V0.258789H63.9902Z" fill="#FDFDFD"/>
<path d="M43.9315 0.258789V1.87644H40.8405V10.0941H39.2621V1.87644H36.1711V0.258789H43.9315Z" fill="#FDFDFD"/>
<path d="M35.4479 7.44125C35.4479 8.34713 34.9875 9.12362 34.3298 9.64127C33.6722 10.1589 32.8172 10.4177 31.8965 10.4177C31.8307 10.4177 31.765 10.4177 31.6992 10.4177C30.7127 10.353 29.8578 10.0295 29.2001 9.44712C28.674 8.92947 28.2794 8.21772 28.2136 7.44125V7.37656V6.7295H29.792L29.8578 7.24718C29.9235 7.63542 30.1208 7.95894 30.3839 8.21777C30.7127 8.5413 31.2388 8.73537 31.8965 8.73537C32.5541 8.73537 33.0803 8.60597 33.4091 8.34715C33.7379 8.08833 33.9352 7.7648 33.9352 7.37656C33.9352 6.98833 33.8037 6.66481 33.3433 6.34128C32.9487 6.08246 32.3568 5.88833 31.8965 5.75891C31.8965 5.75891 31.8307 5.75893 31.8307 5.69422L31.5677 5.62953L31.3704 5.56476C30.91 5.43535 30.2523 5.17656 29.6604 4.78832C28.937 4.27068 28.5424 3.62365 28.6082 2.71777C28.6082 1.87659 29.0028 1.10007 29.7262 0.647133C30.3839 0.194191 31.2388 -0.0646322 32.1596 7.37151e-05C33.6064 0.0647796 34.8559 0.841282 35.3821 2.1354L35.5136 2.653L34.001 3.10599L33.8695 2.71777C33.6064 2.07071 32.9487 1.68243 32.0938 1.61772C31.4361 1.61772 30.9758 1.74713 30.6469 1.94125C30.3181 2.20007 30.1866 2.45891 30.1866 2.84715C30.1866 2.97656 30.1866 3.10596 30.2523 3.23537C30.3181 3.36478 30.4496 3.49418 30.6469 3.62359C31.0415 3.88241 31.6334 4.07654 32.2253 4.20596L32.3569 4.27065H32.4226C32.9487 4.46476 33.7379 4.65891 34.3298 5.11185C35.0533 5.6295 35.4479 6.47066 35.4479 7.44125Z" fill="#FDFDFD"/>
<path d="M22.0315 0.258789H18.8748V10.1588H22.0315C24.7279 10.1588 26.8982 7.95876 26.8982 5.24111C26.8982 2.52346 24.7279 0.258789 22.0315 0.258789ZM22.0315 8.54117H20.4531V1.94113H22.0315C23.8729 1.94113 25.3198 3.42935 25.3198 5.24111C25.3198 7.05287 23.8072 8.54117 22.0315 8.54117Z" fill="#FDFDFD"/>
<path d="M12.1009 1.87644V4.39998H16.3756V6.01763H12.1009V8.4764H16.9675V10.0941H10.5225V0.258789H16.9675V1.87644H12.1009Z" fill="#FDFDFD"/>
<path d="M8.81353 10.1588H6.90631L4.86758 6.72938H2.3027L1.38197 5.11173H5.32791C6.18287 5.11173 6.90631 4.39997 6.90631 3.49408C6.90631 2.5882 6.18287 1.87644 5.32791 1.87644H0.987387L0.0666504 0.258789H5.32791C7.03782 0.258789 8.41891 1.68233 8.41891 3.42939C8.41891 4.72351 7.6955 5.82351 6.57748 6.34116L8.81353 10.1588Z" fill="#FDFDFD"/>
<path d="M0.328857 8.15283H2.23608V9.57641V10.094H0.328857V8.15283Z" fill="#E70000"/>
</g>
<defs>
<clipPath id="clip0_55_8098">
<rect width="73" height="11" fill="white"/>
</clipPath>
</defs>
</svg>
